<svg xmlns="http://www.w3.org/2000/svg" viewBox="0 0 64 64" fill="none">
  <!-- Scroll body -->
  <path d="M14 8C14 5.79 15.79 4 18 4H42L52 14V52C52 54.21 50.21 56 48 56H18C15.79 56 14 54.21 14 52V8Z" fill="#F5F0E6" stroke="#5C4A32" stroke-width="2.5" stroke-linejoin="round"/>
  <!-- Page fold -->
  <path d="M42 4V14H52" stroke="#5C4A32" stroke-width="2.5" stroke-linejoin="round"/>
  <path d="M42 4V12C42 13.1 42.9 14 44 14H52" fill="#E0D8C8"/>
  <!-- Text lines -->
  <line x1="22" y1="24" x2="44" y2="24" stroke="#5C4A32" stroke-width="2" stroke-linecap="round"/>
  <line x1="22" y1="32" x2="44" y2="32" stroke="#5C4A32" stroke-width="2" stroke-linecap="round"/>
  <line x1="22" y1="40" x2="36" y2="40" stroke="#5C4A32" stroke-width="2" stroke-linecap="round"/>
  <!-- Top scroll curl -->
  <ellipse cx="14" cy="8" rx="4" ry="4" fill="#E0D8C8" stroke="#5C4A32" stroke-width="2"/>
  <!-- Bottom scroll curl -->
  <ellipse cx="14" cy="52" rx="4" ry="4" fill="#E0D8C8" stroke="#5C4A32" stroke-width="2"/>
</svg>
