<svg xmlns="http://www.w3.org/2000/svg" width="1024" height="171" viewBox="-0.608 -0.608 128.776 21.498"><path d="m9.425 5.44 2.689-2.64c-1.049-.647-2.489-.943-4.284-.943H2.688L0 15.987h5.361c6.228 0 8.718-4.453 8.718-9.088 0-1.204-.253-2.166-.743-2.915zm-3.769 7.187h-.791l1.423-7.452h1.11c1.68 0 2.292 1.018 2.292 2.41 0 2.815-1.525 5.042-4.034 5.042m115.197 3.723c-3.144 0-4.684-1.377-4.684-4.128 0-3.058 1.483-7.208 6.705-7.208 3.124 0 4.685 1.418 4.685 4.133 0 3.117-1.483 7.203-6.706 7.203m1.505-8.076c-1.621 0-2.057 2.531-2.057 3.665 0 .911.376 1.173 1.11 1.173 1.598 0 2.015-2.532 2.015-3.682 0-.89-.355-1.156-1.068-1.156m-6.626.85a4.3 4.3 0 0 0-.966-.122c-.89 0-1.604.913-1.92 2.591l-.832 4.394h-4.031l2.014-10.605h3.026l.1 1.414c.93-1.173 1.66-1.781 2.786-1.781.516 0 .791.04.933.082zm-14.377 2.937c-.02.1-.038.284-.038.384 0 .648.435.87 1.58.87 1.03 0 2.493-.263 3.344-.565v2.975c-1.087.405-2.79.626-4.155.626-3.204 0-4.746-.891-4.746-3.865 0-2.919 1.325-7.471 6.427-7.471 3.245 0 4.215 1.5 4.215 3.078 0 2.044-1.723 3.785-6.627 3.968m2.116-4.25c-.93 0-1.462.787-1.68 1.7 1.839 0 2.395-.588 2.395-1.075 0-.343-.3-.625-.715-.625m-8.382 8.177h-4.256l1.01-5.345h-3.6l-1.01 5.345h-4.25L85.67 1.857h4.254l-.969 5.042h3.6l.97-5.042h4.25zM79.581 5.38c-1.782 4.736-3.363 8.198-4.945 10.588-2.294 3.502-4.313 4.312-6.39 4.312-.613 0-1.264-.165-1.583-.326l.635-3.056h1.385c.691 0 .988-.285 1.443-.912-.772-2.853-1.148-6.84-1.108-10.606h4.055a47 47 0 0 0 .04 5.12c.02.465.056.91.096 1.358h.022c.177-.428.373-.852.553-1.318a53 53 0 0 0 1.76-5.16zM66.965 9.124a4.4 4.4 0 0 0-.97-.122c-.891 0-1.602.912-1.921 2.591l-.826 4.394h-4.039l2.02-10.605h3.028l.097 1.414c.929-1.173 1.663-1.782 2.789-1.782.512 0 .791.04.927.083zm-14.378 2.937a3 3 0 0 0-.041.384c0 .648.436.87 1.582.87 1.03 0 2.492-.263 3.342-.565v2.975c-1.088.405-2.788.626-4.152.626-3.205 0-4.747-.891-4.747-3.865 0-2.919 1.324-7.471 6.427-7.471 3.244 0 4.21 1.5 4.21 3.078 0 2.044-1.716 3.785-6.62 3.968m2.114-4.25c-.927 0-1.465.787-1.684 1.7 1.842 0 2.395-.588 2.395-1.075 0-.343-.295-.625-.71-.625m-5.4-2.43c-1.385 3.563-2.908 7.044-4.845 10.606h-4.945c-.633-3.36-.91-6.903-.83-10.606h4.035a50 50 0 0 0 .037 5.181c.022.445.062.87.1 1.297h.023c.176-.428.372-.852.551-1.297.691-1.743 1.324-3.642 1.801-5.18zm-15.502 0h3.994l-2.02 10.606H31.74l1.423-7.448m3.026-4.045c-1.322 0-2.175-.87-2.175-2.065C34.015.87 35.084 0 36.406 0c1.347 0 2.18.87 2.18 2.044 0 1.58-1.05 2.45-2.396 2.45M18.334 12.06c-.021.1-.04.284-.04.384 0 .648.433.87 1.583.87 1.027 0 2.489-.263 3.34-.565v2.975c-1.086.405-2.789.626-4.154.626-3.202 0-4.745-.891-4.745-3.865 0-2.919 1.324-7.471 6.429-7.471 3.241 0 4.209 1.5 4.209 3.078 0 2.044-1.718 3.785-6.622 3.968m2.115-4.25c-.928 0-1.463.787-1.68 1.7 1.838 0 2.393-.588 2.393-1.075 0-.343-.299-.625-.713-.625m9.027 8.337h-3.88l3.036-14.556 4.231-1.59z" style="fill:#de2130;fill-opacity:1;fill-rule:nonzero;stroke:none"/></svg>