<svg xmlns="http://www.w3.org/2000/svg" width="112" height="32" fill="none" viewBox="0 0 112 32"><path fill="#00aa13" fill-rule="evenodd" d="M15.996 2.017C8.51 2.353 2.42 8.276 2.022 15.603c-.326 6.016 3.119 11.28 8.231 13.722 1.907.91 4.17-.234 4.54-2.281.247-1.379-.47-2.744-1.75-3.357-2.907-1.396-4.857-4.412-4.627-7.846.27-4.017 3.588-7.28 7.689-7.557 4.847-.327 8.887 3.425 8.887 8.106 0 3.212-1.903 5.986-4.665 7.305a3.074 3.074 0 0 0-1.707 3.315l.013.068c.36 2.013 2.584 3.157 4.46 2.268 4.91-2.328 8.298-7.255 8.298-12.956-.005-8.174-6.964-14.756-15.395-14.373" clip-rule="evenodd"/><path fill="#00aa13" fill-rule="evenodd" d="M16.708 21.462c-2.854 0-5.173-2.273-5.173-5.068s2.32-5.067 5.173-5.067 5.174 2.272 5.174 5.067-2.32 5.068-5.174 5.068" clip-rule="evenodd"/><path fill="#454545" fill-rule="evenodd" d="M89.593 17.817a.27.27 0 0 0-.366.088c-.743 1.167-2.03 1.942-3.492 1.942-1.931 0-3.552-1.344-4.031-3.169h11.275a.275.275 0 0 0 .271-.246q.047-.43.047-.872c0-4.408-3.582-7.96-7.92-7.755-3.874.182-7.02 3.411-7.197 7.388-.2 4.452 3.26 8.13 7.555 8.13 2.706 0 5.077-1.457 6.41-3.65a.285.285 0 0 0-.094-.395l-2.462-1.461zm-3.858-6.54c1.722 0 3.201 1.074 3.838 2.604h-7.68c.637-1.53 2.115-2.604 3.838-2.604zM63.098 7.845c-4.173 0-7.555 3.472-7.555 7.755 0 4.284 3.382 7.755 7.555 7.755 4.172 0 7.555-3.471 7.555-7.755s-3.383-7.755-7.555-7.755m0 12.026c-2.297 0-4.161-1.913-4.161-4.27 0-2.358 1.864-4.272 4.16-4.272 2.298 0 4.162 1.914 4.162 4.271s-1.864 4.271-4.161 4.271M75.927 8.06h-3.025a.275.275 0 0 0-.271.246V22.6c0 1.316-.445 2.39-1.29 3.109-.55.468-1.266.779-2.065.904a.28.28 0 0 0-.232.279v2.826c0 .157.122.282.276.282h.03c3.776 0 6.836-3.14 6.836-7.016l.016-14.646a.277.277 0 0 0-.275-.283zm-22.669-.005h-3.024a.277.277 0 0 0-.276.283v.985c-.538-.642-1.392-.997-1.73-1.118a7.3 7.3 0 0 0-2.423-.4c-4.113.012-7.495 3.444-7.554 7.666-.06 4.348 3.354 7.892 7.578 7.892.842 0 1.656-.141 2.41-.403.347-.126 1.188-.48 1.723-1.115v.751c0 1.316-.444 2.39-1.29 3.109-.731.625-1.758.969-2.89.969-1.644 0-3.221-.69-4.145-1.793a.27.27 0 0 0-.398-.016l-2.005 2.006a.287.287 0 0 0-.004.4c1.707 1.792 3.925 2.709 6.595 2.725h.853c3.776 0 6.836-3.14 6.836-7.016v-1.401l.015-13.245a.277.277 0 0 0-.275-.283zm-3.3 7.574c-.023 2.32-1.864 4.194-4.129 4.194s-4.13-1.898-4.13-4.239 1.849-4.239 4.13-4.239 4.106 1.874 4.13 4.195zm56.09 7.46a.15.15 0 0 1-.122-.065l-4.653-6.414-2.45 2.446v3.851a.156.156 0 0 1-.153.158h-3.25a.156.156 0 0 1-.153-.158V3.647c0-.085.067-.157.153-.157h3.249c.082 0 .153.068.153.157V14.31l6.253-6.201a.15.15 0 0 1 .106-.045h4.307c.094 0 .13.073.141.097a.16.16 0 0 1-.035.17l-5.891 5.865 6.268 8.644c.036.048.04.109.012.161a.15.15 0 0 1-.133.085h-3.8z" clip-rule="evenodd"/></svg>